# Blender v2.72 (sub 0) OBJ File: 'scene.blend'
# www.blender.org
mtllib marker.mtl
o Marker_Cylinder
v -0.000000 0.009000 0.000000
v -0.000000 0.009000 0.203285
v -0.039659 0.009000 0.199379
v -0.000000 0.011000 0.000000
v -0.039659 0.011000 0.199379
v -0.000000 0.011000 0.203285
v -0.077794 0.009000 0.187811
v -0.077794 0.011000 0.187811
v -0.112939 0.009000 0.169026
v -0.112940 0.011000 0.169025
v -0.143745 0.009000 0.143745
v -0.143745 0.011000 0.143744
v -0.169026 0.009000 0.112939
v -0.169026 0.011000 0.112939
v -0.187811 0.009000 0.077794
v -0.187811 0.011000 0.077794
v -0.199379 0.009000 0.039659
v -0.199379 0.011000 0.039659
v -0.203285 0.009000 0.000000
v -0.203285 0.011000 0.000000
v -0.199379 0.009000 -0.039659
v -0.199379 0.011000 -0.039659
v -0.187811 0.009000 -0.077794
v -0.187811 0.011000 -0.077794
v -0.169026 0.009000 -0.112939
v -0.169026 0.011000 -0.112940
v -0.143745 0.009000 -0.143745
v -0.143744 0.011000 -0.143745
v -0.112939 0.009000 -0.169026
v -0.112939 0.011000 -0.169026
v -0.077794 0.009000 -0.187811
v -0.077794 0.011000 -0.187811
v -0.039659 0.009000 -0.199379
v -0.039659 0.011000 -0.199379
v -0.000000 0.009000 -0.203285
v -0.000000 0.011000 -0.203285
v 0.039659 0.009000 -0.199379
v 0.039659 0.011000 -0.199379
v 0.077794 0.009000 -0.187811
v 0.077794 0.011000 -0.187811
v 0.112939 0.009000 -0.169026
v 0.112939 0.011000 -0.169026
v 0.143745 0.009000 -0.143744
v 0.143744 0.011000 -0.143745
v 0.169026 0.009000 -0.112939
v 0.169025 0.011000 -0.112940
v 0.187811 0.009000 -0.077794
v 0.187811 0.011000 -0.077795
v 0.199379 0.009000 -0.039659
v 0.199379 0.011000 -0.039660
v 0.203285 0.009000 0.000000
v 0.203285 0.011000 -0.000001
v 0.199379 0.009000 0.039659
v 0.199380 0.011000 0.039658
v 0.187811 0.009000 0.077794
v 0.187812 0.011000 0.077793
v 0.169026 0.009000 0.112940
v 0.169026 0.011000 0.112938
v 0.143744 0.009000 0.143745
v 0.143745 0.011000 0.143744
v 0.112939 0.009000 0.169026
v 0.112940 0.011000 0.169025
v 0.077794 0.009000 0.187811
v 0.077795 0.011000 0.187811
v 0.039659 0.009000 0.199379
v 0.039660 0.011000 0.199379
vt 0.492611 0.584486
vt 0.484089 0.505664
vt 0.496769 0.505065
vt 0.487633 0.499519
vt 0.440531 0.977773
vt 0.348133 0.959394
vt 0.509499 0.506376
vt 0.534738 0.977773
vt 0.522055 0.509610
vt 0.627136 0.959393
vt 0.534211 0.514772
vt 0.714172 0.923341
vt 0.545744 0.521856
vt 0.792503 0.871002
vt 0.556425 0.530858
vt 0.859118 0.804387
vt 0.566020 0.541774
vt 0.911456 0.726056
vt 0.574276 0.554617
vt 0.947508 0.639019
vt 0.580912 0.569423
vt 0.965887 0.546622
vt 0.585592 0.586271
vt 0.965887 0.452415
vt 0.587885 0.605303
vt 0.947508 0.360017
vt 0.587199 0.626767
vt 0.911456 0.272980
vt 0.581881 0.650144
vt 0.859117 0.194649
vt 0.571616 0.676220
vt 0.792502 0.128034
vt 0.554366 0.705720
vt 0.714172 0.075695
vt 0.526370 0.739837
vt 0.627135 0.039643
vt 0.479888 0.780764
vt 0.534737 0.021264
vt 0.439328 0.732618
vt 0.440529 0.021264
vt 0.416644 0.694854
vt 0.348132 0.039643
vt 0.404032 0.663577
vt 0.261095 0.075695
vt 0.397828 0.636860
vt 0.182764 0.128034
vt 0.396077 0.613628
vt 0.116149 0.194649
vt 0.397636 0.593241
vt 0.063810 0.272980
vt 0.401778 0.575312
vt 0.027758 0.360017
vt 0.407998 0.559608
vt 0.009379 0.452414
vt 0.415920 0.545989
vt 0.009379 0.546622
vt 0.425240 0.534379
vt 0.027758 0.639019
vt 0.435693 0.524740
vt 0.063809 0.726056
vt 0.447035 0.517056
vt 0.116148 0.804386
vt 0.459034 0.511319
vt 0.182762 0.871001
vt 0.471462 0.507525
vt 0.261093 0.923341
vt 0.467413 0.304472
vt 0.507335 0.304158
vt 0.546771 0.309044
vt 0.585089 0.318956
vt 0.621701 0.333637
vt 0.656083 0.352751
vt 0.687789 0.375898
vt 0.716464 0.402632
vt 0.741853 0.432479
vt 0.763811 0.464957
vt 0.782307 0.499605
vt 0.797431 0.536010
vt 0.809349 0.573693
vt 0.818304 0.612589
vt 0.824355 0.652826
vt 0.827810 0.694140
vt 0.829151 0.736631
vt 0.828986 0.780764
vt 0.147094 0.745431
vt 0.152499 0.701842
vt 0.158287 0.660196
vt 0.165324 0.620343
vt 0.174299 0.581777
vt 0.185743 0.544374
vt 0.200061 0.508243
vt 0.217542 0.473651
vt 0.238353 0.440972
vt 0.262546 0.410647
vt 0.290055 0.383155
vt 0.320699 0.358986
vt 0.354188 0.338616
vt 0.390135 0.322491
vt 0.428062 0.311001
vn -0.000000 -1.000000 -0.000000
vn 0.000000 1.000000 0.000000
vn -0.098000 0.000000 0.995200
vn -0.290300 0.000000 0.956900
vn -0.471400 0.000000 0.881900
vn -0.471400 0.000200 0.881900
vn -0.634400 0.000100 0.773000
vn -0.634400 0.000400 0.773000
vn -0.773000 0.000300 0.634400
vn -0.773000 0.000000 0.634400
vn -0.881900 0.000000 0.471400
vn -0.956900 0.000000 0.290300
vn -0.995200 0.000000 0.098000
vn -0.995200 0.000000 -0.098000
vn -0.956900 0.000000 -0.290300
vn -0.881900 0.000000 -0.471400
vn -0.881900 -0.000200 -0.471400
vn -0.773000 -0.000300 -0.634400
vn -0.773000 0.000400 -0.634400
vn -0.634400 0.000300 -0.773000
vn -0.634400 0.000000 -0.773000
vn -0.471400 0.000000 -0.881900
vn -0.290300 0.000000 -0.956900
vn -0.098000 0.000000 -0.995200
vn 0.098000 0.000000 -0.995200
vn 0.290300 0.000000 -0.956900
vn 0.471400 0.000000 -0.881900
vn 0.634400 0.000000 -0.773000
vn 0.634400 -0.000100 -0.773000
vn 0.773000 0.000100 -0.634400
vn 0.881900 0.000200 -0.471400
vn 0.881900 -0.000200 -0.471400
vn 0.956900 -0.000100 -0.290300
vn 0.995200 -0.000000 -0.098000
vn 0.995200 0.000000 0.098000
vn 0.995200 -0.000400 0.098000
vn 0.956900 -0.000400 0.290300
vn 0.956900 -0.000300 0.290300
vn 0.881900 -0.000200 0.471400
vn 0.881900 0.000500 0.471400
vn 0.773000 0.000600 0.634400
vn 0.773000 -0.000100 0.634400
vn 0.634400 0.000100 0.773000
vn 0.471400 0.000200 0.881900
vn 0.471400 -0.000200 0.881900
vn 0.290300 -0.000100 0.956900
vn 0.098000 0.000000 0.995200
g Marker_Cylinder_Material_blue.dds
usemtl Material_blue.dds
s off
f 1/1/1 2/2/1 3/3/1
f 4/4/2 5/5/2 6/6/2
f 1/1/1 3/3/1 7/7/1
f 4/4/2 8/8/2 5/5/2
f 1/1/1 7/7/1 9/9/1
f 4/4/2 10/10/2 8/8/2
f 1/1/1 9/9/1 11/11/1
f 4/4/2 12/12/2 10/10/2
f 1/1/1 11/11/1 13/13/1
f 4/4/2 14/14/2 12/12/2
f 1/1/1 13/13/1 15/15/1
f 4/4/2 16/16/2 14/14/2
f 1/1/1 15/15/1 17/17/1
f 4/4/2 18/18/2 16/16/2
f 1/1/1 17/17/1 19/19/1
f 4/4/2 20/20/2 18/18/2
f 1/1/1 19/19/1 21/21/1
f 4/4/2 22/22/2 20/20/2
f 1/1/1 21/21/1 23/23/1
f 4/4/2 24/24/2 22/22/2
f 1/1/1 23/23/1 25/25/1
f 4/4/2 26/26/2 24/24/2
f 1/1/1 25/25/1 27/27/1
f 4/4/2 28/28/2 26/26/2
f 1/1/1 27/27/1 29/29/1
f 4/4/2 30/30/2 28/28/2
f 1/1/1 29/29/1 31/31/1
f 4/4/2 32/32/2 30/30/2
f 1/1/1 31/31/1 33/33/1
f 4/4/2 34/34/2 32/32/2
f 1/1/1 33/33/1 35/35/1
f 4/4/2 36/36/2 34/34/2
f 1/1/1 35/35/1 37/37/1
f 4/4/2 38/38/2 36/36/2
f 1/1/1 37/37/1 39/39/1
f 4/4/2 40/40/2 38/38/2
f 1/1/1 39/39/1 41/41/1
f 4/4/2 42/42/2 40/40/2
f 1/1/1 41/41/1 43/43/1
f 4/4/2 44/44/2 42/42/2
f 1/1/1 43/43/1 45/45/1
f 4/4/2 46/46/2 44/44/2
f 1/1/1 45/45/1 47/47/1
f 4/4/2 48/48/2 46/46/2
f 1/1/1 47/47/1 49/49/1
f 4/4/2 50/50/2 48/48/2
f 1/1/1 49/49/1 51/51/1
f 4/4/2 52/52/2 50/50/2
f 1/1/1 51/51/1 53/53/1
f 4/4/2 54/54/2 52/52/2
f 1/1/1 53/53/1 55/55/1
f 4/4/2 56/56/2 54/54/2
f 1/1/1 55/55/1 57/57/1
f 4/4/2 58/58/2 56/56/2
f 1/1/1 57/57/1 59/59/1
f 4/4/2 60/60/2 58/58/2
f 1/1/1 59/59/1 61/61/1
f 4/4/2 62/62/2 60/60/2
f 1/1/1 61/61/1 63/63/1
f 4/4/2 64/64/2 62/62/2
f 1/1/1 63/63/1 65/65/1
f 4/4/2 66/66/2 64/64/2
f 2/2/1 1/1/1 65/65/1
f 4/4/2 6/6/2 66/66/2
f 2/2/3 6/67/3 5/68/3
f 2/2/3 5/68/3 3/3/3
f 3/3/4 5/68/4 8/69/4
f 3/3/4 8/69/4 7/7/4
f 7/7/5 8/69/5 10/70/5
f 7/7/6 10/70/6 9/9/6
f 9/9/7 10/70/7 12/71/7
f 9/9/8 12/71/8 11/11/8
f 11/11/9 12/71/9 14/72/9
f 11/11/10 14/72/10 13/13/10
f 13/13/11 14/72/11 16/73/11
f 13/13/11 16/73/11 15/15/11
f 15/15/12 16/73/12 18/74/12
f 15/15/12 18/74/12 17/17/12
f 17/17/13 18/74/13 20/75/13
f 17/17/13 20/75/13 19/19/13
f 19/19/14 20/75/14 22/76/14
f 19/19/14 22/76/14 21/21/14
f 21/21/15 22/76/15 24/77/15
f 21/21/15 24/77/15 23/23/15
f 23/23/16 24/77/16 26/78/16
f 23/23/17 26/78/17 25/25/17
f 25/25/18 26/78/18 28/79/18
f 25/25/19 28/79/19 27/27/19
f 27/27/20 28/79/20 30/80/20
f 27/27/21 30/80/21 29/29/21
f 29/29/22 30/80/22 32/81/22
f 29/29/22 32/81/22 31/31/22
f 31/31/23 32/81/23 34/82/23
f 31/31/23 34/82/23 33/33/23
f 33/33/24 34/82/24 36/83/24
f 33/33/24 36/83/24 35/35/24
f 35/35/25 36/83/25 38/84/25
f 35/35/25 38/84/25 37/37/25
f 37/37/26 38/85/26 40/86/26
f 37/37/26 40/86/26 39/39/26
f 39/39/27 40/86/27 42/87/27
f 39/39/27 42/87/27 41/41/27
f 41/41/28 42/87/28 44/88/28
f 41/41/29 44/88/29 43/43/29
f 43/43/30 44/88/30 46/89/30
f 43/43/30 46/89/30 45/45/30
f 45/45/31 46/89/31 48/90/31
f 45/45/32 48/90/32 47/47/32
f 47/47/33 48/90/33 50/91/33
f 47/47/33 50/91/33 49/49/33
f 49/49/34 50/91/34 52/92/34
f 49/49/34 52/92/34 51/51/34
f 51/51/35 52/92/35 54/93/35
f 51/51/36 54/93/36 53/53/36
f 53/53/37 54/93/37 56/94/37
f 53/53/38 56/94/38 55/55/38
f 55/55/39 56/94/39 58/95/39
f 55/55/40 58/95/40 57/57/40
f 57/57/41 58/95/41 60/96/41
f 57/57/42 60/96/42 59/59/42
f 59/59/43 60/96/43 62/97/43
f 59/59/43 62/97/43 61/61/43
f 61/61/44 62/97/44 64/98/44
f 61/61/45 64/98/45 63/63/45
f 63/63/46 64/98/46 66/99/46
f 63/63/46 66/99/46 65/65/46
f 6/67/47 2/2/47 65/65/47
f 6/67/47 65/65/47 66/99/47
